# xmcd
#
# Track frame offsets:
#	150
#	21063
#	37084
#	49319
#	70521
#	86783
#	103950
#	117493
#	141943
#	160553
#	180991
#
# Disc length: 2684 seconds
#
# Revision: 0
# Processed by: cddbd v1.5.2PL0 Copyright (c) Steve Scherf et al.
# Submitted via: EasyCDDAExtractor 2011.0.0.0
#
DISCID=930a7a0b
DTITLE=Honey B and T-Bones - Walking Witness
DYEAR=2011
DGENRE=
TTITLE0=Guru demon
TTITLE1=Tough love
TTITLE2=We've been forced to postpone the hunting season
TTITLE3=Doomsday blues
TTITLE4=Dry, dry, dry
TTITLE5=There's always a will
TTITLE6=Whining
TTITLE7=Hangaround
TTITLE8=Drown Pt. II
TTITLE9=You can't catch me from the ground
TTITLE10=I walk the line
EXTD=
EXTT0=
EXTT1=
EXTT2=
EXTT3=
EXTT4=
EXTT5=
EXTT6=
EXTT7=
EXTT8=
EXTT9=
EXTT10=
PLAYORDER=
